<svg xmlns="http://www.w3.org/2000/svg" viewBox="0 0 331 492.67"><defs><style>.cls-1{fill:#5c7ee5;}.cls-2{fill:#fff;}.cls-3{fill:#3ccfd4;}.cls-4{fill:#ff9b00;}</style></defs><g id="Capa_2" data-name="Capa 2"><g id="Capa_1-2" data-name="Capa 1"><rect class="cls-1" y="66.37" width="331" height="356.71" rx="31.12"/><path class="cls-2" d="M288.18,199.91H47c-7.76.1-10.6-7.77-9.64-14.4-11.42-21.22,247.19-4.72,250.79-9.64C301.44,175.68,301.45,200.11,288.18,199.91Z"/><path class="cls-2" d="M287.18,260h-161c-7.77.1-10.59-7.77-9.64-14.4a9.65,9.65,0,0,1,9.64-9.64h161C300.44,235.78,300.44,260.21,287.18,260Z"/><path class="cls-2" d="M287.18,320.11h-161c-7.77.1-10.59-7.77-9.64-14.4a9.65,9.65,0,0,1,9.64-9.64h161C300.44,295.88,300.44,320.31,287.18,320.11Z"/><path class="cls-2" d="M82.84,260H46c-7.81.1-10.57-7.77-9.64-14.4A9.65,9.65,0,0,1,46,236H82.84C96.1,235.78,96.1,260.21,82.84,260Z"/><path class="cls-3" d="M236.82,68.73c-1.56,91.64-137.88,91.62-139.43,0C99-22.92,235.27-22.9,236.82,68.73Z"/><path class="cls-4" d="M236.82,423.94c-1.56,91.64-137.88,91.63-139.43,0C99,332.3,235.27,332.32,236.82,423.94Z"/></g></g></svg>