<svg xmlns="http://www.w3.org/2000/svg" viewBox="0 0 494 121.21"><defs><style>.cls-1{fill:#fff;}.cls-2{fill:#3ccfd4;}.cls-3{fill:#ff9b00;}.cls-4{fill:#5c7ee5;}</style></defs><g id="Capa_2" data-name="Capa 2"><g id="Capa_1-2" data-name="Capa 1"><path class="cls-1" d="M228.14,99.51a17.33,17.33,0,0,1-1.57-5.25,19,19,0,0,1-14.8,6.34q-8.61,0-14.28-5A16,16,0,0,1,191.83,83q0-9.33,6.91-14.31t20-5h7.21V60.32a9.67,9.67,0,0,0-2.09-6.5q-2.09-2.45-6.58-2.44a9.31,9.31,0,0,0-6.21,1.9,6.44,6.44,0,0,0-2.25,5.2H193.13a15.71,15.71,0,0,1,3.14-9.43,20.78,20.78,0,0,1,8.89-6.8,32.29,32.29,0,0,1,12.9-2.47q10.84,0,17.21,5.45t6.37,15.31V86q0,8.36,2.33,12.63v.92ZM215.19,88.62a13.47,13.47,0,0,0,6.39-1.55,10.18,10.18,0,0,0,4.34-4.14V72.85h-5.85q-11.77,0-12.53,8.13l0,.92a6.27,6.27,0,0,0,2.06,4.82A8,8,0,0,0,215.19,88.62Z"/><path class="cls-1" d="M277.86,26.45V81.63c0,2.16.42,3.72,1.25,4.66s2.42,1.41,4.77,1.41a25.33,25.33,0,0,0,4.61-.38V99.19A32.27,32.27,0,0,1,279,100.6q-16.47,0-16.8-16.64V52.36h-8.56V40.87h8.56V26.45Z"/><path class="cls-1" d="M344.15,93.55q-5.81,7-16,7-9.42,0-14.39-5.42T308.65,79.3V40.87h15.66V78.8q0,9.17,8.35,9.17,8,0,10.95-5.54V40.87h15.71V99.51H344.58Z"/><path class="cls-1" d="M391,40.87l.48,6.77q6.3-7.86,16.86-7.86,9.33,0,13.88,5.48t4.66,16.37V99.51H411.21V62q0-5-2.16-7.23t-7.21-2.25a10.77,10.77,0,0,0-9.92,5.64V99.51H376.25V40.87Z"/><path class="cls-1" d="M478.17,99.51a17.62,17.62,0,0,1-1.57-5.25,19,19,0,0,1-14.8,6.34q-8.61,0-14.28-5A16,16,0,0,1,441.86,83q0-9.33,6.91-14.31t20-5H476V60.32a9.67,9.67,0,0,0-2.09-6.5q-2.08-2.45-6.58-2.44a9.31,9.31,0,0,0-6.21,1.9,6.44,6.44,0,0,0-2.25,5.2H443.16a15.78,15.78,0,0,1,3.14-9.43,20.78,20.78,0,0,1,8.89-6.8,32.29,32.29,0,0,1,12.9-2.47q10.85,0,17.21,5.45t6.37,15.31V86q0,8.36,2.33,12.63v.92ZM465.22,88.62a13.47,13.47,0,0,0,6.39-1.55A10.12,10.12,0,0,0,476,82.93V72.85H470.1q-11.76,0-12.52,8.13l-.06.92a6.27,6.27,0,0,0,2.06,4.82A8,8,0,0,0,465.22,88.62Z"/><rect class="cls-1" x="111.28" y="20.62" width="16.42" height="79.13"/><rect class="cls-1" x="159.05" y="20.62" width="16.42" height="79.13"/><circle class="cls-2" cx="143.62" cy="62.42" r="10.45"/><circle class="cls-3" cx="293.42" cy="46.5" r="10.45"/><rect class="cls-4" y="17.08" width="81.35" height="87.05" rx="5.22"/><rect class="cls-1" x="8.89" y="43.34" width="63.82" height="5.89" rx="2.95"/><rect class="cls-1" x="28.28" y="58.07" width="44.18" height="5.89" rx="2.95"/><rect class="cls-1" x="28.28" y="72.8" width="44.18" height="5.89" rx="2.95"/><rect class="cls-1" x="8.64" y="58.07" width="13.75" height="5.89" rx="2.95"/><circle class="cls-2" cx="40.68" cy="17.08" r="17.08"/><circle class="cls-3" cx="40.68" cy="104.13" r="17.08"/></g></g></svg>