<svg xmlns="http://www.w3.org/2000/svg" viewBox="0 0 538 112.43"><defs><style>.cls-1{fill:#11111f;}.cls-2{fill:#3ccfd4;}.cls-3{fill:#ff9b00;}</style></defs><g id="Capa_2" data-name="Capa 2"><g id="Capa_1-2" data-name="Capa 1"><path class="cls-1" d="M164.28,110.9a24.37,24.37,0,0,1-2.21-7.39q-8,8.92-20.8,8.92-12.12,0-20.08-7a22.54,22.54,0,0,1-8-17.68q0-13.09,9.71-20.11T151,60.54h10.13V55.82q0-5.72-2.93-9.15T149,43.25c-3.7,0-6.61.88-8.72,2.66a9.06,9.06,0,0,0-3.16,7.32h-22A22.08,22.08,0,0,1,119.48,40,29.2,29.2,0,0,1,132,30.41a45.59,45.59,0,0,1,18.14-3.47q15.24,0,24.19,7.66t8.95,21.52V91.86q.08,11.73,3.28,17.75v1.29ZM146.07,95.59a18.93,18.93,0,0,0,9-2.17,14.27,14.27,0,0,0,6.09-5.83V73.42h-8.22q-16.55,0-17.6,11.43l-.08,1.29a8.8,8.8,0,0,0,2.89,6.78A11.26,11.26,0,0,0,146.07,95.59Z"/><path class="cls-1" d="M234.17,8.2V85.76q0,4.58,1.76,6.55c1.16,1.32,3.4,2,6.7,2a34.79,34.79,0,0,0,6.48-.53v16.69a45.36,45.36,0,0,1-13.34,2q-23.16,0-23.62-23.39V44.62h-12V28.46h12V8.2Z"/><path class="cls-1" d="M327.35,102.52q-8.16,9.92-22.55,9.91-13.26,0-20.23-7.62t-7.13-22.33v-54h22V81.78q0,12.9,11.74,12.9,11.19,0,15.39-7.79V28.46h22.09V110.9H328Z"/><path class="cls-1" d="M393.21,28.46l.68,9.53q8.85-11.05,23.7-11,13.11,0,19.5,7.7t6.56,23V110.9h-22V58.18q0-7-3.05-10.17t-10.13-3.16a15.16,15.16,0,0,0-13.95,7.92V110.9h-22V28.46Z"/><path class="cls-1" d="M515.75,110.9a24.65,24.65,0,0,1-2.21-7.39q-8,8.92-20.8,8.92-12.11,0-20.08-7a22.57,22.57,0,0,1-8-17.68q0-13.09,9.72-20.11t28.07-7.09h10.14V55.82q0-5.72-2.94-9.15t-9.25-3.42c-3.71,0-6.62.88-8.73,2.66a9.06,9.06,0,0,0-3.16,7.32h-22A22.08,22.08,0,0,1,471,40a29.23,29.23,0,0,1,12.5-9.56,45.54,45.54,0,0,1,18.13-3.47q15.24,0,24.19,7.66t9,21.52V91.86q.07,11.73,3.28,17.75v1.29ZM497.54,95.59a18.93,18.93,0,0,0,9-2.17,14.24,14.24,0,0,0,6.1-5.83V73.42H504.4q-16.53,0-17.6,11.43l-.08,1.29a8.81,8.81,0,0,0,2.9,6.78A11.23,11.23,0,0,0,497.54,95.59Z"/><rect class="cls-1" width="23.09" height="111.23"/><rect class="cls-1" x="67.16" width="23.09" height="111.23"/><circle class="cls-2" cx="45.47" cy="58.76" r="14.69"/><circle class="cls-3" cx="256.04" cy="36.38" r="14.69"/></g></g></svg>