<?xml version="1.0" encoding="UTF-8"?>
<svg id="Capa_2" data-name="Capa 2" xmlns="http://www.w3.org/2000/svg" viewBox="0 0 237.77 102.12">
  <defs>
    <style>
      .cls-1, .cls-2 {
        fill: #fff;
      }

      .cls-2, .cls-3 {
        fill-rule: evenodd;
      }

      .cls-3 {
        fill: #e7d095;
      }
    </style>
  </defs>
  <g id="Capa_1-2" data-name="Capa 1">
    <g>
      <path class="cls-1" d="M131.21,59.38c-.05,0-.06-.04-.05-.09l1.17-3.19c.01-.05.04-.12.08-.12s.05.07.06.12l1.15,3.21s0,.08-.06.08h-2.35ZM133.8,60.03c.06,0,.1.03.13.09l1.02,2.75c.06.16-.03.27-.12.3-.13.01-.18.04-.18.12,0,.09.15.09.38.1,1.02.03,1.95.03,2.41.03s.59-.03.59-.13c0-.09-.06-.1-.17-.1-.15,0-.34-.01-.54-.05-.27-.08-.64-.26-1.12-1.42-.82-1.97-2.86-7.26-3.16-7.98-.13-.3-.2-.42-.32-.42-.13,0-.2.14-.36.52l-3.2,8.15c-.26.65-.5,1.09-1.08,1.17-.1.01-.28.03-.4.03-.1,0-.15.03-.15.1,0,.1.08.13.24.13.66,0,1.36-.04,1.5-.04.4,0,.94.04,1.35.04.14,0,.22-.03.22-.13,0-.08-.04-.1-.19-.1h-.19c-.39,0-.51-.17-.51-.4,0-.16.06-.47.19-.79l.69-1.86c.03-.08.05-.1.12-.1h2.84ZM123.02,52.6c.6,0,1.13-.75,1.25-.97.04-.08.08-.16.08-.22s-.05-.1-.1-.1c-.06,0-.13.06-.2.17-.05.06-.32.39-.78.39-.31,0-.6-.1-.92-.29-.29-.17-.57-.36-1.02-.36-.61,0-1.13.69-1.32,1-.04.05-.1.18-.1.25,0,.05.04.09.09.09s.09-.01.2-.13c.1-.12.37-.47.87-.47.34,0,.59.16.82.29.27.14.61.36,1.15.36ZM118.62,56.2h.04c.23.25,1.64,1.87,3.03,3.27,1.33,1.34,2.96,3.04,3.76,3.82.14.14.29.29.43.29.11,0,.17-.12.17-.4l.14-8.19c.01-.73.11-1,.47-1.1.15-.04.25-.04.38-.04.15,0,.23-.04.23-.12,0-.1-.13-.12-.29-.12-.62,0-1.11.04-1.25.04-.27,0-.88-.04-1.54-.04-.19,0-.33.01-.33.12,0,.08.05.12.2.12.18,0,.48,0,.67.08.31.13.42.38.43,1.17l.13,5.83h-.06c-.22-.21-1.94-2.08-2.8-2.96-1.86-1.88-3.8-4-3.95-4.17-.22-.23-.33-.4-.47-.4-.13,0-.17.18-.17.44l-.11,7.69c-.01,1.13-.06,1.51-.4,1.61-.18.05-.41.06-.57.06-.13,0-.2.03-.2.1,0,.12.12.13.28.13.66,0,1.26-.04,1.38-.04.24,0,.75.04,1.58.04.18,0,.29-.03.29-.13,0-.08-.08-.1-.22-.1-.2,0-.45-.01-.66-.09-.25-.09-.42-.43-.45-1.44l-.14-5.45ZM111.96,59.65c0,1.26,0,2.28-.06,2.83-.04.38-.11.6-.37.65-.12.03-.27.05-.46.05-.15,0-.2.04-.2.1,0,.09.09.13.26.13.51,0,1.31-.04,1.61-.04.34,0,1.15.04,1.99.04.14,0,.24-.04.24-.13,0-.06-.06-.1-.2-.1-.19,0-.47-.03-.65-.05-.38-.05-.47-.29-.51-.64-.05-.56-.05-1.58-.05-2.84v-2.29c0-1.97,0-2.34.03-2.75.03-.45.13-.67.47-.74.15-.03.25-.04.38-.04s.2-.03.2-.13c0-.08-.1-.1-.27-.1-.48,0-1.24.04-1.56.04-.37,0-1.17-.04-1.66-.04-.2,0-.31.03-.31.1,0,.1.08.13.2.13.15,0,.32.01.46.05.28.06.41.29.43.73.03.42.03.78.03,2.75v2.29ZM104.44,62.81c.24.61.32.79.48.79.18,0,.26-.21.59-.96.28-.65.88-2.06,1.7-3.96.69-1.6,1.03-2.3,1.53-3.52.34-.83.54-1.05.7-1.17.23-.16.5-.16.62-.16s.2-.03.2-.12-.1-.12-.27-.12c-.38,0-.98.04-1.2.04-.17,0-.7-.04-1.34-.04-.24,0-.36.03-.36.13,0,.09.1.1.22.1.17,0,.36.01.51.06.11.04.17.14.17.25,0,.12-.05.31-.12.48-.31.86-1.96,5.04-2.51,6.47h-.05l-2.19-5.89c-.18-.47-.29-.83-.29-1,0-.12.04-.21.13-.27.1-.08.29-.09.5-.09.11,0,.19-.03.19-.12s-.14-.12-.29-.12c-.64,0-1.25.04-1.57.04-.45,0-1.17-.04-1.85-.04-.19,0-.33.01-.33.12,0,.08.04.12.15.12.1,0,.31,0,.5.05.46.13.68.27.97.99l3.21,7.93Z"/>
      <polygon class="cls-2" points="82.38 57.9 96.15 59.24 82.38 60.57 33.18 59.24 82.38 57.9"/>
      <polygon class="cls-2" points="155.26 57.9 141.49 59.24 155.26 60.57 204.46 59.24 155.26 57.9"/>
      <path class="cls-3" d="M114.91,98.98c1.35-.03,2.6-.26,3.77-.71,1.16-.44,2.18-1.05,3.05-1.83.87-.78,1.62-1.69,2.24-2.73.62-1.05,1.09-2.2,1.4-3.47.32-1.26.47-2.58.47-3.97,0-1.46-.2-2.85-.61-4.17-.41-1.33-1-2.53-1.76-3.63.85,1.49,1.37,3.08,1.57,4.77.14,1.25.1,2.49-.14,3.72-.23,1.22-.66,2.35-1.27,3.39-.62,1.08-1.48,1.96-2.57,2.61-1.09.66-2.24.95-3.43.89,1.19.01,2.3-.32,3.34-1.01,1.04-.69,1.84-1.57,2.42-2.64.55-1.01.92-2.13,1.1-3.35.18-1.22.17-2.39-.03-3.53-.18-1.17-.53-2.29-1.04-3.36-.52-1.07-1.17-2.02-1.97-2.86-.79-.84-1.7-1.56-2.71-2.15-1.01-.59-2.08-1-3.2-1.26v-.05c-.06,0-.12,0-.2-.02-.07,0-.15-.01-.24-.02-.09,0-.15-.01-.2-.02v12.8c.27-.17.54-.27.8-.27.19-.02.46.04.82.17-.27-.01-.53.03-.75.13-.23.1-.4.24-.53.43-.12.18-.21.39-.26.63-.07.28-.09.5-.07.66h0s0,10.84,0,10.84ZM232.78,86.41h0c-.01-1.65-.28-3.19-.79-4.59-.51-1.41-1.19-2.52-2.06-3.33-.86-.82-1.8-1.22-2.81-1.22s-1.94.41-2.8,1.22c-.86.81-1.54,1.92-2.05,3.32-.51,1.4-.77,2.93-.79,4.59.26-.16.53-.25.81-.26.2-.02.48.03.82.15-.28-.01-.53.03-.76.13-.23.1-.41.24-.53.43-.12.18-.21.39-.26.63-.01.05-.03.13-.04.23.11,1.52.43,2.9.95,4.15.52,1.24,1.19,2.23,2.01,2.95.82.72,1.7,1.08,2.64,1.08s1.77-.34,2.57-1.02c.81-.68,1.47-1.61,1.99-2.79.52-1.18.86-2.5,1.01-3.95.02-.16,0-.38-.07-.65-.05-.23-.14-.44-.26-.63-.12-.19-.3-.33-.53-.43-.23-.1-.48-.14-.76-.13.36-.12.63-.17.82-.15.33,0,.62.11.87.29ZM236.95,86.12c.2-.02.47.03.82.15-.27-.01-.52.03-.75.13-.23.1-.4.24-.53.43-.11.16-.19.36-.24.59-.1,1.32-.41,2.57-.92,3.75-.52,1.18-1.18,2.2-1.98,3.06-.81.85-1.75,1.53-2.83,2.03-1.08.5-2.21.75-3.38.75-1.5,0-2.9-.39-4.2-1.17-1.31-.78-2.38-1.85-3.23-3.2-.84-1.35-1.38-2.86-1.6-4.52v-.02c-.04-.29-.07-.5-.08-.65-.06-.24-.14-.45-.25-.62-.12-.19-.3-.33-.53-.43-.23-.1-.48-.14-.76-.13.36-.12.63-.17.82-.15.22,0,.45.07.69.2.03-1.39.29-2.72.78-3.98.49-1.26,1.14-2.35,1.96-3.26.81-.91,1.78-1.64,2.89-2.18,1.12-.54,2.29-.81,3.51-.81s2.39.27,3.51.81c1.11.54,2.08,1.26,2.89,2.17.81.91,1.47,2,1.96,3.26.5,1.26.76,2.59.78,3.98.22-.12.44-.19.67-.19ZM213.67,86.55h2.53s0,10.45,0,10.45l-.33-.2c-.79-.45-1.65-.67-2.59-.69-.95,0-1.84.18-2.67.57-.47.21-1.13.31-1.98.31-1.17,0-2.26-.25-3.26-.74-1-.5-1.86-1.18-2.56-2.04-.71-.86-1.27-1.88-1.7-3.04-.43-1.16-.68-2.42-.76-3.76-.07-.26-.15-.46-.24-.6-.12-.19-.3-.33-.53-.43-.23-.1-.48-.14-.76-.13.36-.12.63-.17.82-.15.22,0,.45.07.69.2.02-.93.14-1.84.37-2.72.23-.88.54-1.7.93-2.45.4-.75.87-1.44,1.43-2.07.56-.63,1.17-1.16,1.83-1.6.67-.44,1.38-.78,2.17-1.03.78-.25,1.58-.37,2.4-.37,1.17,0,2.32.26,3.46.79l-.04-.78h2.33s.09,0,.09,0c-.04,1.97-.36,3.67-.93,5.11-.38.91-.82,1.66-1.34,2.22-.68.76-1.43,1.14-2.25,1.14.81-.03,1.54-.42,2.19-1.19.4-.47.77-1.09,1.09-1.84-.15.25-.3.45-.45.61-.48.53-1.11.82-1.92.87.68-.31,1.12-.74,1.31-1.29,0-.02.01-.05.02-.09.01-.04.02-.07.03-.09.16-.68.1-1.35-.18-2.01-.27-.67-.7-1.19-1.29-1.58-.68-.46-1.38-.69-2.12-.69-1.01,0-1.95.41-2.81,1.22-.86.82-1.54,1.92-2.05,3.32-.51,1.4-.77,2.93-.78,4.59.26-.17.55-.27.86-.28.2-.02.48.03.82.15-.27-.01-.53.03-.76.13-.23.1-.41.24-.53.43-.12.18-.21.39-.26.63-.06.28-.09.5-.07.66.08,1.11.24,2.14.49,3.07.25.93.57,1.75.95,2.45.39.7.87,1.24,1.44,1.64.57.39,1.19.59,1.87.59.63,0,1.18-.08,1.64-.24.47-.16.87-.42,1.22-.78.35-.36.62-.85.81-1.45.19-.61.3-1.35.32-2.22.03-.88.04-2.07.04-3.55h-2.77v-1.08h3.77ZM192.28,97c.56-.36,1-.84,1.32-1.42.32-.59.47-1.21.47-1.87v-5.77c-.01-.19-.04-.35-.07-.49-.05-.23-.14-.44-.26-.63-.13-.19-.3-.33-.53-.43-.23-.1-.48-.14-.75-.13.36-.12.63-.17.82-.15.28,0,.54.1.79.25v-1.05c-.15-.55-.38-1.03-.69-1.45-.2-.27-.43-.52-.67-.75-.25-.24-.53-.47-.85-.69-.32-.23-.6-.41-.82-.54-.23-.14-.55-.32-.96-.56-.41-.23-.71-.4-.87-.5-1.23-.73-2.01-1.6-2.34-2.6v8.15c.25-.16.51-.24.79-.25.2-.02.48.03.82.15-.27-.01-.53.03-.75.13-.23.1-.4.24-.53.43-.12.18-.21.39-.26.63-.06.23-.08.45-.07.64v5.62c0,.66.16,1.28.47,1.87.32.59.75,1.06,1.31,1.42h-7.07c.56-.36,1-.84,1.31-1.42.32-.59.47-1.21.47-1.87v-5.92c0-.12-.03-.24-.06-.34-.05-.25-.14-.46-.25-.63-.12-.19-.3-.33-.53-.43-.23-.1-.48-.14-.76-.13.37-.13.64-.18.82-.16.27,0,.53.1.79.26v-6.99c0-.66-.16-1.28-.48-1.87-.32-.58-.76-1.06-1.32-1.43h5.28c.12-.39.3-.76.54-1.1-.16.34-.25.77-.29,1.27-.04.5.03,1.01.19,1.54.16.53.42.92.77,1.18.24.17.68.4,1.31.7.63.29,1.24.57,1.84.84.59.26,1.17.57,1.73.93.57.36.94.7,1.12,1.02v-5.21l-1.78-1.17h5.27v10.28c.26-.16.52-.25.79-.26.2-.02.47.03.83.16-.27-.01-.52.03-.76.13-.23.1-.41.24-.53.43-.13.18-.21.39-.27.63-.02.1-.04.26-.06.49v5.77c0,.66.16,1.28.47,1.87.32.59.75,1.06,1.31,1.42h-7.07ZM179.1,93.72c0,.67.16,1.29.47,1.88.32.59.75,1.06,1.31,1.42h-7.07c.56-.37,1-.84,1.31-1.42.32-.59.47-1.21.47-1.87v-5.62c.02-.16,0-.38-.07-.66-.05-.23-.14-.44-.26-.63-.12-.19-.3-.33-.53-.43-.23-.1-.48-.14-.75-.13.36-.12.63-.17.82-.15.27,0,.54.1.8.26v-6.98c0-.66-.16-1.29-.48-1.87-.32-.58-.76-1.06-1.32-1.42h7.07c-.56.36-.99.84-1.31,1.42-.31.59-.47,1.21-.47,1.87v6.96c.27-.16.53-.25.78-.25.19-.02.46.03.82.16-.27-.01-.53.03-.75.13-.23.1-.4.24-.53.43-.12.18-.21.39-.26.63-.03.1-.05.2-.06.31v5.95ZM171.16,93.71c0,.66.16,1.29.48,1.88.32.59.76,1.06,1.31,1.42h-7.07c.56-.36.99-.84,1.31-1.42.32-.59.47-1.21.47-1.87v-5.39c.02-.16,0-.39-.07-.67-.05-.23-.14-.44-.26-.62-.13-.19-.3-.33-.53-.43-.23-.1-.48-.14-.76-.13.37-.13.64-.19.82-.17.27.01.54.1.8.26v-8.48c-.06.35-.14.66-.21.93-.18.64-.45,1.25-.8,1.84-.35.59-.79,1.22-1.31,1.91-.61.78-1.02,1.32-1.24,1.63-.38.5-.69,1.06-.93,1.69-.22.6-.45,1.53-.69,2.79-.07.44-.15.83-.25,1.2-.05-.4-.09-.8-.12-1.21-.14-1.16-.34-2.08-.62-2.78-.09-.23-.19-.45-.3-.67-.12-.22-.27-.46-.44-.72-.18-.26-.32-.46-.42-.6-.1-.14-.28-.37-.54-.7-.26-.32-.42-.53-.49-.62-.54-.7-.97-1.33-1.33-1.92-.35-.58-.62-1.19-.8-1.83,0-.03-.02-.06-.02-.11-.01-.05-.02-.09-.03-.11v7.76c.25-.15.5-.23.76-.24.19-.02.46.04.82.17-.27-.01-.53.03-.76.13-.23.1-.41.24-.53.43-.12.18-.21.39-.26.62,0,.04-.02.11-.03.2v5.86c0,.66.16,1.28.47,1.87.32.59.75,1.06,1.31,1.42h-7.07c.56-.36,1-.84,1.31-1.42.32-.59.47-1.21.47-1.87v-5.39h0c.02-.16,0-.39-.07-.67-.05-.25-.14-.45-.25-.62-.12-.19-.3-.33-.53-.43-.23-.1-.48-.14-.76-.13.37-.13.64-.19.82-.17.27,0,.54.1.81.27v-7.2c0-.66-.16-1.28-.48-1.87-.32-.58-.76-1.06-1.32-1.43h5.03c.05-.5.12-.93.23-1.32.09,1.43.4,2.74.92,3.94.24.55.53,1.07.87,1.57.34.5.78,1.09,1.32,1.77.03.04.12.17.3.4.17.23.28.37.33.43.05.06.14.2.29.41.15.21.25.36.31.46.06.1.15.25.26.44.12.2.21.36.26.5.06.14.12.3.2.48.07.18.13.36.18.54.06-.23.14-.47.24-.72.1-.25.19-.46.27-.62.08-.17.21-.39.39-.66.18-.27.3-.45.37-.55.06-.09.21-.29.44-.6.23-.31.36-.48.39-.53.53-.66.96-1.25,1.3-1.76.35-.51.64-1.04.88-1.58.53-1.21.83-2.53.92-3.94.1.35.18.79.23,1.32h5.19c-.56.36-.99.84-1.31,1.42-.32.58-.47,1.21-.47,1.87v7.2c.26-.16.53-.25.8-.26.2-.02.48.03.82.16-.27-.01-.52.03-.75.13-.23.1-.4.24-.53.43-.12.18-.21.39-.26.62-.06.28-.09.5-.07.67h0v5.39ZM146.57,86.41h0c-.01-1.65-.28-3.19-.79-4.59-.51-1.41-1.19-2.52-2.06-3.33-.86-.82-1.8-1.22-2.81-1.22s-1.94.41-2.8,1.22c-.86.81-1.54,1.92-2.05,3.32-.51,1.4-.77,2.93-.79,4.59.26-.16.53-.25.81-.26.2-.02.48.03.82.15-.28-.01-.53.03-.76.13-.23.1-.41.24-.53.43-.12.18-.21.39-.26.63-.01.05-.03.13-.04.23.11,1.52.43,2.9.95,4.15.52,1.24,1.19,2.23,2.01,2.95.82.72,1.7,1.08,2.64,1.08s1.77-.34,2.57-1.02c.81-.68,1.47-1.61,1.99-2.79.52-1.18.86-2.5,1.01-3.95.02-.16,0-.38-.07-.65-.05-.23-.14-.44-.26-.63-.12-.19-.3-.33-.53-.43-.23-.1-.48-.14-.76-.13.36-.12.63-.17.82-.15.33,0,.62.11.87.29ZM150.74,86.12c.2-.02.47.03.82.15-.27-.01-.52.03-.75.13-.23.1-.4.24-.53.43-.11.16-.19.36-.24.59-.1,1.32-.41,2.57-.92,3.75-.52,1.18-1.18,2.2-1.98,3.06-.8.85-1.75,1.53-2.83,2.03-1.08.5-2.21.75-3.38.75-1.5,0-2.9-.39-4.2-1.17-1.31-.78-2.38-1.85-3.23-3.2-.85-1.35-1.38-2.86-1.6-4.52v-.02c-.04-.29-.07-.5-.08-.65-.06-.24-.14-.45-.25-.62-.12-.19-.3-.33-.53-.43-.11-.04-.21-.08-.33-.1-.21,0-.41.05-.6.13-.23.1-.41.24-.53.43-.13.18-.21.39-.27.63-.06.28-.09.5-.07.66h-.04c-.2,1.65-.66,3.21-1.38,4.66-.72,1.45-1.63,2.71-2.72,3.78-1.1,1.07-2.39,1.92-3.89,2.55-1.49.63-3.09.96-4.78,1v.02h-6.66l.58-.42c.33-.24.59-.54.78-.89.19-.36.28-.74.28-1.15v-9.74c-.01-.21-.03-.37-.06-.48-.05-.24-.14-.44-.26-.63-.12-.19-.3-.33-.53-.43-.23-.1-.48-.14-.76-.13.37-.13.65-.18.82-.17.27.01.53.1.79.27v-9.87c0-.51-.14-.97-.41-1.4-.27-.42-.63-.74-1.09-.94-.45-.2-.93-.25-1.42-.15h-.03c-1.11.23-2.01.73-2.7,1.5-.73.8-1.13,1.77-1.18,2.9-.05,1.03.18,2.1.66,3.19-.57-1.07-.86-2.14-.88-3.19-.02-1.21.33-2.28,1.05-3.19.49-.63,1.16-1.14,2-1.52-.77.2-1.46.48-2.07.84-.61.36-1.1.77-1.47,1.23-.37.46-.68.95-.92,1.48-.24.54-.4,1.07-.47,1.6-.07.54-.08,1.07-.04,1.59.04.53.13,1.01.28,1.45.15.44.34.83.57,1.16.23.34.49.59.76.75-.37-.09-.76-.22-1.2-.4-.44-.17-.91-.4-1.43-.69-.52-.29-1-.61-1.46-.96-.46-.35-.87-.77-1.24-1.25-.37-.48-.64-.97-.82-1.49-.18-.52-.23-1.11-.15-1.76.08-.65.33-1.32.72-2,.29-.49.69-.91,1.21-1.28.52-.36,1.1-.65,1.74-.84.64-.2,1.34-.37,2.1-.5.76-.13,1.51-.21,2.27-.24.76-.03,1.51-.05,2.27-.06.76-.01,1.46,0,2.1.03h6.25c1.23.03,2.43.21,3.57.56,1.14.35,2.19.82,3.13,1.42.94.6,1.8,1.32,2.57,2.17.77.85,1.43,1.78,1.96,2.79.53,1.01.94,2.11,1.23,3.29.29,1.18.43,2.4.43,3.65v.09c.25-.14.49-.22.71-.23.12-.01.29,0,.48.06.24-.07.43-.09.57-.08.22,0,.45.07.69.2.03-1.39.29-2.72.78-3.98.49-1.26,1.14-2.35,1.96-3.26.81-.91,1.78-1.64,2.89-2.18,1.12-.54,2.29-.81,3.51-.81s2.39.27,3.51.81c1.11.54,2.08,1.26,2.89,2.17.81.91,1.47,2,1.96,3.26.5,1.26.76,2.59.78,3.98.22-.12.44-.19.67-.19ZM90.03,86.41h0c-.01-1.65-.28-3.19-.79-4.59-.51-1.41-1.19-2.52-2.06-3.33-.86-.82-1.8-1.22-2.81-1.22s-1.94.41-2.8,1.22c-.86.81-1.54,1.92-2.05,3.32-.51,1.4-.77,2.93-.79,4.59.26-.16.53-.25.81-.26.2-.02.48.03.82.15-.28-.01-.53.03-.76.13-.23.1-.41.24-.53.43-.12.18-.21.39-.26.63-.01.05-.03.13-.04.23.11,1.52.43,2.9.95,4.15.52,1.24,1.19,2.23,2.01,2.95.82.72,1.7,1.08,2.64,1.08s1.77-.34,2.57-1.02c.8-.68,1.47-1.61,1.99-2.79.52-1.18.86-2.5,1.01-3.95.02-.16,0-.38-.07-.65-.05-.23-.14-.44-.26-.63-.12-.19-.3-.33-.53-.43-.23-.1-.48-.14-.76-.13.36-.12.63-.17.82-.15.33,0,.62.11.87.29ZM94.2,86.12c.2-.02.47.03.82.15-.27-.01-.52.03-.75.13-.23.1-.4.24-.53.43-.11.16-.19.36-.24.59-.1,1.32-.41,2.57-.92,3.75-.52,1.18-1.18,2.2-1.98,3.06-.8.85-1.75,1.53-2.83,2.03-1.08.5-2.21.75-3.38.75-1.5,0-2.9-.39-4.2-1.17-1.31-.78-2.38-1.85-3.23-3.2-.85-1.35-1.38-2.86-1.6-4.52v-.02c-.04-.29-.07-.5-.08-.65-.06-.24-.14-.45-.25-.62-.12-.19-.3-.33-.53-.43-.23-.1-.48-.14-.76-.13.36-.12.63-.17.82-.15.22,0,.45.07.69.2.03-1.39.29-2.72.78-3.98.49-1.26,1.14-2.35,1.96-3.26.81-.91,1.78-1.64,2.89-2.18,1.12-.54,2.29-.81,3.51-.81s2.39.27,3.51.81c1.11.54,2.08,1.26,2.89,2.17.81.91,1.47,2,1.96,3.26.5,1.26.76,2.59.78,3.98.22-.12.44-.19.67-.19ZM75.79,76.09h.1c-.04,1.88-.35,3.43-.91,4.65-.36.79-.84,1.42-1.43,1.89-.61.51-1.34.76-2.2.76.83-.02,1.55-.29,2.16-.82.55-.46,1-1.08,1.34-1.89.33-.79.55-1.69.65-2.7-.16.65-.32,1.19-.49,1.62-.27.71-.63,1.25-1.06,1.61-.47.4-1.03.62-1.68.63.56-.24.96-.59,1.2-1.04.21-.38.31-.86.31-1.46h0c0-.57-.21-1.06-.63-1.46-.42-.4-.91-.61-1.48-.61h-3.19v9.09c.27-.16.53-.25.78-.25.19-.02.46.03.82.16-.27-.01-.52.03-.76.13-.23.1-.41.24-.53.43-.13.18-.21.39-.27.63-.02.12-.04.23-.05.31v5.95c0,.67.16,1.29.47,1.88.32.59.75,1.06,1.31,1.42h-7.07c.56-.37.99-.84,1.31-1.42.32-.59.47-1.21.47-1.88v-5.62h0c.02-.15,0-.37-.07-.65-.05-.23-.14-.44-.27-.63-.12-.19-.3-.33-.53-.43-.23-.1-.48-.14-.76-.13.37-.13.64-.18.82-.16.27,0,.54.1.8.26v-9.1h-3.31c-.57,0-1.06.2-1.48.61-.42.4-.63.89-.63,1.45h0c0,.61.1,1.1.31,1.47.24.46.64.8,1.2,1.04-.64-.02-1.2-.23-1.68-.63-.44-.36-.79-.89-1.06-1.61-.16-.42-.33-.96-.49-1.63.1,1.01.32,1.92.65,2.71.34.81.79,1.43,1.34,1.89.61.53,1.32.8,2.16.82-.84,0-1.58-.26-2.21-.77-.6-.48-1.07-1.1-1.43-1.88-.56-1.22-.86-2.77-.91-4.65h2.43v.02h13.58,0s2.33-.02,2.33-.02ZM50.2,97c.56-.36,1-.84,1.32-1.42.32-.59.47-1.21.47-1.87v-5.77c-.01-.19-.04-.35-.07-.49-.05-.23-.14-.44-.26-.63-.13-.19-.3-.33-.53-.43-.23-.1-.48-.14-.75-.13.36-.12.63-.17.82-.15.28,0,.54.1.79.25v-1.05c-.15-.55-.38-1.03-.69-1.45-.2-.27-.43-.52-.67-.75-.25-.24-.53-.47-.85-.69-.32-.23-.6-.41-.83-.54-.23-.14-.55-.32-.96-.56-.41-.23-.71-.4-.88-.5-1.23-.73-2.01-1.6-2.34-2.6v8.15c.25-.16.51-.24.79-.25.2-.02.48.03.82.15-.27-.01-.53.03-.75.13-.23.1-.4.24-.53.43-.12.18-.21.39-.26.63-.06.23-.08.45-.07.64v5.62c0,.66.16,1.28.47,1.87.32.59.75,1.06,1.31,1.42h-7.07c.56-.36,1-.84,1.31-1.42.32-.59.47-1.21.47-1.87v-5.92c-.01-.12-.03-.24-.06-.34-.05-.25-.14-.46-.25-.63-.12-.19-.3-.33-.53-.43-.23-.1-.48-.14-.76-.13.37-.13.64-.18.82-.16.27,0,.53.1.79.26v-6.99c0-.66-.16-1.28-.48-1.87-.32-.58-.76-1.06-1.32-1.43h5.28c.12-.39.3-.76.54-1.1-.16.34-.25.77-.29,1.27-.04.5.03,1.01.19,1.54.16.53.42.92.77,1.18.24.17.68.4,1.31.7.63.29,1.24.57,1.84.84.59.26,1.17.57,1.73.93.57.36.94.7,1.12,1.02v-5.21l-1.78-1.17h5.27v10.28c.26-.16.52-.25.79-.26.2-.02.47.03.83.16-.27-.01-.52.03-.76.13-.23.1-.41.24-.53.43-.13.18-.21.39-.27.63-.02.1-.04.26-.06.49v5.77c0,.66.16,1.28.47,1.87.32.59.75,1.06,1.31,1.42h-7.07ZM25.62,85.85c1.19.48,2.38,1.21,3.56,2.19,1.18.98,2.29,2.04,3.3,3.17l-4.34-13.77-2.51,8.41ZM32.22,97c.52-.35.87-.81,1.08-1.39.2-.59.21-1.17.02-1.76l-.09-.27c-1.36-1.76-3.26-3.33-5.71-4.73-.66-.37-1.51-.65-2.55-.82l-1.36,4.56c-.27.92-.2,1.8.23,2.65.43.85,1.09,1.44,1.98,1.76h-7.07c.86-.37,1.6-.91,2.22-1.6.63-.7,1.07-1.5,1.34-2.39l1.53-5.11c-1.69-.11-3,.16-3.93.79.47-1.14.96-2,1.49-2.56.52-.56,1.15-.84,1.88-.81.36,0,.79.07,1.27.2l2.82-9.43h3.82l3.55,11.24c.11-.12.24-.23.38-.33.25-.18.54-.28.86-.29.19-.02.46.04.82.17-.27-.01-.52.03-.75.13-.23.1-.41.24-.53.43-.12.18-.21.39-.26.62-.06.27-.09.49-.07.65h0l1.6,5.07c.21.67.53,1.28.96,1.84.43.56.95,1.03,1.54,1.4h-7.07ZM17.83,89.14c.26.74.42,1.51.47,2.29.05.78.03,1.49-.09,2.13-.11.64-.28,1.26-.5,1.86-.22.6-.46,1.1-.7,1.52-.24.42-.5.78-.76,1.08-.61.74-1.31,1.42-2.12,2.04-.85.67-1.69,1.17-2.55,1.5-.92.39-1.91.58-2.96.57-1.05-.01-2.03-.23-2.93-.65-1.74-.81-3.16-2.11-4.25-3.92-1.1-1.86-1.57-3.71-1.41-5.54.05-.65.2-1.28.47-1.88.27-.61.64-1.14,1.13-1.61.49-.47,1.04-.8,1.67-.99.93-.28,1.87-.2,2.79.25.92.45,1.63,1.09,2.11,1.95.31.55.49,1.14.54,1.79.05.65,0,1.27-.17,1.87-.17.6-.43,1.16-.77,1.67.5-.81.78-1.67.84-2.61.05-.93-.15-1.8-.62-2.6-.48-.78-1.16-1.36-2.04-1.74-.87-.38-1.72-.43-2.53-.13-.8.27-1.46.81-1.97,1.62-.45.7-.7,1.53-.75,2.48-.07,1.68.43,3.34,1.51,4.99.5.75,1.08,1.42,1.75,2,.67.58,1.4,1.03,2.18,1.35.81.32,1.63.47,2.47.45.84-.03,1.65-.22,2.44-.58.26-.13.57-.31.94-.54-.85.29-1.71.4-2.58.34-1.19-.07-2.32-.41-3.37-1.03-1.05-.62-1.86-1.44-2.41-2.46-.55-1.03-.8-2.14-.75-3.35.05-1.28.46-2.33,1.22-3.14-.72.83-1.07,1.87-1.07,3.15,0,1.16.29,2.23.86,3.2.57.94,1.35,1.69,2.37,2.23,1.01.55,2.07.83,3.18.84,1.11.03,2.16-.24,3.14-.78.98-.55,1.68-1.29,2.1-2.24.29-.66.49-1.36.58-2.11.09-.74.05-1.55-.12-2.44-.17-.89-.5-1.75-.97-2.58-.41-.71-1.08-1.52-2.01-2.42-.14-.07-.27-.11-.38-.14-.24-.04-.46-.02-.67.06-.18.06-.38.21-.61.46.15-.34.3-.57.46-.7.12-.1.3-.21.55-.3-.3-.27-.76-.66-1.35-1.17-.6-.51-1.03-.88-1.3-1.13-.48-.43-.91-.85-1.28-1.25-.6-.56-1.16-1.13-1.68-1.72-.38-.44-.67-.83-.88-1.16-.24-.37-.43-.84-.58-1.41-.22-.97-.2-1.95.05-2.93.24-.95.67-1.81,1.29-2.59.62-.77,1.36-1.37,2.22-1.78.86-.42,1.78-.63,2.74-.64.96-.01,1.87.18,2.71.59-.87-.35-1.77-.49-2.7-.42-.93.07-1.8.33-2.59.78-.78.44-1.44,1.04-1.97,1.78-.53.75-.87,1.56-1.04,2.43-.17.89-.13,1.74.11,2.56.04.16.11.34.21.54-.08-.68-.02-1.33.2-1.98.18-.52.42-1.04.74-1.57.31-.53.68-1.02,1.09-1.49.42-.47.9-.86,1.44-1.16.55-.31,1.09-.48,1.65-.51.58-.03,1.12.07,1.62.3.48.1.94.31,1.39.61.94.65,1.51,1.28,1.72,1.92.26.79.16,1.62-.3,2.49-.2.39-.56.86-1.08,1.42-.26.28-.5.5-.7.66-.21.16-.5.35-.86.58,0,0-.05.02-.14.07-.08.04-.16.09-.24.13-.07.04-.15.09-.23.14-.08.05-.13.09-.14.12,1.15-1.25,1.73-2.75,1.73-4.52,0-.56-.11-1.13-.34-1.71-.23-.58-.56-1.03-.98-1.34-.42-.2-.86-.31-1.31-.34-.45-.03-.89.04-1.33.21-.43.17-.78.44-1.05.81-.36.5-.59,1.03-.7,1.58-.11.56-.1,1.1.03,1.64.13.54.33,1.05.59,1.54.26.49.59.96.98,1.43.45.53.98,1.07,1.59,1.6.61.54,1.27,1.1,2.01,1.69.73.59,1.31,1.08,1.73,1.46.5.46,1,1.01,1.53,1.64.11,0,.22.01.32.03.31.04.58.18.82.4.16.14.32.37.48.69-.34-.36-.73-.54-1.15-.52.57.78.98,1.56,1.25,2.33Z"/>
      <path class="cls-3" d="M114.84,7.93c-.18.23-.44.79-.48.97h8.92c-.04-.17-.3-.73-.48-.97h-7.96M109.96,37c2.46,2.89,5.91,5.12,8.86,6.57,2.95-1.45,6.4-3.67,8.86-6.57,1.87-2.19,3.16-4.77,3.22-7.67V11.45h-24.16v17.88c.05,2.9,1.35,5.48,3.22,7.67ZM118.42,45.45c-3.22-1.53-7.11-3.98-9.89-7.24-2.13-2.5-3.61-5.47-3.67-8.87h0V9.57h27.91v19.75h0c-.06,3.42-1.54,6.39-3.67,8.89-2.77,3.26-6.66,5.71-9.89,7.24l-.4.19-.4-.19ZM114.12,39.67c-1.27-.96-2.47-2.04-3.5-3.25-.91-1.07-1.68-2.24-2.21-3.48-.48-1.13-.77-2.34-.8-3.61v-.3s0,0,0,0V12.33h22.39v16.7h.01v.3c-.03,1.27-.32,2.47-.8,3.61-.53,1.25-1.3,2.41-2.21,3.48-1.03,1.2-2.23,2.29-3.5,3.25-1.49,1.13-3.08,2.08-4.56,2.84l-.13.07-.13-.07c-1.49-.76-3.07-1.71-4.56-2.84ZM111.07,36.05c1,1.17,2.17,2.22,3.41,3.16,1.42,1.07,2.93,1.98,4.34,2.72,1.42-.73,2.92-1.64,4.34-2.72,1.24-.93,2.41-1.99,3.41-3.16.87-1.03,1.61-2.14,2.12-3.33.42-1,.69-2.05.74-3.15V12.92h-21.22v16.65c.06,1.1.32,2.15.74,3.14.51,1.19,1.24,2.31,2.12,3.33ZM118.38,23.96h-.02c-.65,0-1.13.07-1.45.21-.04.04-.07.08-.11.13-.04.16-.06.3-.06.43,0,.08,0,.18,0,.29.02.73.03,1.31.03,1.75v.83c.21-.05.42-.13.62-.23.44-.21.78-.53,1.03-.94.25-.41.37-.81.37-1.2,0-.46-.14-.88-.41-1.27ZM117.92,35.05c.47.16.95.24,1.45.24.63,0,1.25-.1,1.86-.3.61-.2,1.14-.47,1.61-.84.46-.36.85-.76,1.15-1.22.3-.45.51-.86.64-1.22.18-.53.26-1.22.26-2.07s-.17-1.64-.52-2.48c-.24-.58-.66-1.13-1.25-1.67-.6-.53-1.3-.92-2.12-1.17-.32-.1-.65-.17-.99-.23,0,.1.01.2.01.31,0,.7-.18,1.36-.54,1.98-.37.61-.86,1.08-1.47,1.39-.35.18-.76.3-1.23.38v.75c0,3.12.05,4.86.17,5.22.12.35.44.66.97.92ZM113.14,35.44c.23-.1.5-.16.81-.2.44-.05.77-.16,1-.32.17-.35.25-1.22.25-2.63v-1.48l.02-.89-.02-.66.02-1.01c-.76-.03-1.5-.17-2.2-.42-.48-.17-.77-.31-.87-.42-.1-.1-.16-.22-.16-.34,0-.07,0-.16.02-.28.09-.77.14-1.41.14-1.91.01-.31.04-.49.07-.54.03-.05.07-.07.14-.07.06,0,.1.02.14.06.03.04.06.12.07.24.07.81.45,1.53,1.12,2.17.47.44.98.73,1.53.87l-.02-2.63c0-.35-.05-.57-.15-.68-.14-.16-.53-.3-1.15-.43-.26-.05-.41-.11-.47-.15-.05-.05-.09-.13-.1-.26.14-.03.24-.04.3-.04h1.02c.23,0,.49.02.77.07.58.04,1.17.06,1.78.06.17,0,.43,0,.75-.03h.05c-.42-.38-1.08-.81-1.99-1.28-1.13-.59-1.86-1.02-2.2-1.29-.55-.44-.97-.91-1.24-1.4-.2-.38-.31-.83-.31-1.33,0-.91.36-1.69,1.08-2.33.72-.64,1.69-.95,2.9-.95.67,0,1.25.08,1.73.23.35.12.72.31,1.09.58.05.44.08.69.08.75l-.04.88c-.01.38-.03.62-.05.72-.06.03-.11.04-.14.04l-.09-.02c-.21-.93-.56-1.6-1.07-2.03-.5-.42-1.11-.64-1.83-.64s-1.36.21-1.84.63c-.48.42-.72.91-.72,1.48,0,.43.17.82.5,1.18.33.36,1.19.89,2.56,1.61,1.05.55,1.79,1,2.25,1.34.45.35.79.74,1.02,1.2.09.18.16.36.21.55.72,0,1.4.08,2.04.22.67.15,1.37.43,2.08.83.45.26.9.66,1.37,1.21.47.55.82,1.15,1.06,1.81.24.65.36,1.38.36,2.2,0,.73-.13,1.45-.4,2.17-.27.72-.63,1.34-1.11,1.86-.48.53-.96.93-1.45,1.19-.49.27-1.23.5-2.23.69-.41.07-1.16.11-2.23.11-.71,0-1.29-.02-1.73-.05-.17-.02-.36-.03-.56-.03-.03,0-.06,0-.1,0l-3.83.08-.02-.07s-.02-.06-.02-.1l.02-.14ZM112.18,1.84l2.63,5.63h8.02l2.63-5.63c-.83.02-1.48.6-2,1.11-.48-.38-1.65-.34-1.65.07.37.23.62.63.62,1.1,0,.71-.58,1.29-1.29,1.29s-1.29-.58-1.29-1.29c0-.5.27-.94.77-1.24-.97-.66-1.81-2.88-1.81-2.88,0,0-.84,2.23-1.81,2.88.49.3.77.74.77,1.24,0,.71-.58,1.29-1.29,1.29s-1.29-.58-1.29-1.29c0-.46.25-.87.61-1.1,0-.41-1.18-.45-1.65-.07-.52-.52-1.17-1.09-2-1.11Z"/>
      <path class="cls-3" d="M93.11,28.69c.04.21.3,3.1-.3,4.29-.54,1.07-1.37,2.51-2.01,3.06-.29.25-.66.72-.22,1.28.19.35,1.62,1.02,2.19,1.3.44.22.57,1.05.57,1.05,0,0,.82.22,1.4.67.24.19,1.01,1.16.94,1.76h-2.33c-.12-.31-.23-.62-.35-.93,0,0-.6-.16-.95-.47-.35-.31-1.66-1.52-2.12-1.87-.46-.35-1.07-.96-1.3-1.19-.23-.23-.17-.79.18-1.26.35-.46,2.02-2.45,2.28-2.87,1.01-1.64.89-3.21.95-4.22l1.06-.59ZM98.36,15.95c.48-.61,1.07-1.3,1.46-1.75.39-.76.52-1.4.96-1.61.56-.27.73-.31,1.47.33.74.64.96,1.23,1.31,1.67.35.43,1.17,1.01,1.17,1.33.07.39.11,1.01.11,1.01,0,0-1.17.6-1.69.32-.12-.49.03-.79.08-1.21-.57-.52-.92-1.01-1.05-1.23-.24-.31-.48-.43-.71-.42-.49.44-.55.76-.53,1.02.05.54-.14,2-.14,2-.04.28-.19.55-.34.81-.17,0-.33,0-.5,0-.4,0-.78,0-1.09.02.05-.15.09-.29.12-.45.03-.22.04-.44,0-.68h0c-.09-.44-.32-.83-.62-1.17ZM92.67,7.74c.04-.58.39-1.07,1.14-1.55.35.32,0,1.02-.12,1.24.13-.04.56.03.69.06.45.11,1.05,1.71,1.37,2.2.17.26.61.86,1.02,1.47.35.53.68,1.08.79,1.28.15.27.19.56.11.79-.05.16-.21.37-.35.58-.22.36-.62-.21-.74-.37.09.29.29.98-.04.9-.33-.08-.63-.39-.63-.39-.19-.19-.35-.54-.61-1.08-.5-.12-1.5-.17-1.77-.41-.66-.58-1.05-.71-1.51-1.65-.04,1.14.35,1.67.8,2.12.45.45,3.13,1.89,3.83,2.21.69.33,1.73,1.11,1.93,2.04.07.4,0,.71-.14,1.06-.32-.31-.35-.53-.77-.82.39.55.44.9.7,1.32.19-.2,2.54-.02,3.66-.18.81-.11,1.42-.56,1.86-.37.57.25.71.35.71,1.33s-.31,1.53-.41,2.08c-.1.55,0,1.55-.24,1.75-.24.31-.69.74-.69.74,0,0-1.22-.49-1.35-1.07.3-.41.62-.49.97-.73.03-.77.17-1.36.25-1.6.08-.39.01-.64-.15-.81-.65-.08-.94.08-1.12.27-.37.38-1.61,1.2-1.61,1.2-.5.31-.9.5-1.33.69-.27.55-.88,1.91-1.76,2.68-1.18,1.03-5.41,4.05-5.41,4.05-.19-.22-.31-.47-.46-.72,0,0,.32,1.08.23,1.9-.19,1.78-.68,2.72-1.29,3.61-.61.9-1.49,2.01-1.97,2.49-.28.29-.67,1.07-.21,1.66.2.37,1.8,1.73,2.21,2.05.41.33.65,1.06.65,1.06,0,0,1.06.45,1.31.65.24.2,1.01,1.12.94,1.76h-2.45c-.12-.33-.24-.65-.37-.98,0,0-.53.12-.9-.2-.37-.33-1.67-2.04-2.16-2.41-.49-.37-1.76-1.47-2-1.71-.25-.24-.45-.86-.08-1.35.37-.49,1.55-1.63,1.71-2.12.16-.49.2-1.23-.34-1.84-.53-.61-1.54-1.71-1.75-1.95-.2-.24-.68-1.27-.35-1.76-.36-.33-1.62.28-1.54,1.34.08,1.06.89,2.96.95,3.61.1.92-.36,1.82-1.05,2.09-1.12.43-2.41-.17-2.91-1.23.7.25,1.4.38,1.59.16.55-.64.31-1.45.11-1.98-.24-.66-1.17-2.65-.26-3.95.42-.6,1.49-1.46,3.38-1.37.69-.95,1.02-1.66,2.69-2.67,1.55-.94,2.59-2.02,3.15-2.75.83-1.09.06-3.69-.45-4.61-.75-1.36-1.51-4.21-1.43-5.22.16-2.1,1.31-3.55,1.75-3.92.45-.37,1.57-1.02,1.57-1.02.4-.15.36.02.64.37ZM94.24,9.6c.22.07.61.06.76.24.17.22.1.61.1.61,0,0-.71.06-.86-.85ZM92.81,6.41c-.71-.82-2.97-.69-3.48-.5.54.19.82.48.95.66-2.08,0-3.01.93-3.01,1.2.6-.1,1.55-.11,1.68-.04-1.21.4-2.72,1.12-3.02,2.5.89-.37,1.36-.48,1.91-.5-1.4.73-2.3,2.49-2.27,3.18.78-.52,1.41-.9,1.97-1.04-1.15,1.05-1.84,2.73-1.56,3.61.68-.57,1.24-1.05,1.62-1.16-.85,1.67-1.05,2.65-.81,3.99.52-1.19.82-1.47,1.2-1.69-.45,1.15-.17,3.57.37,4.06.17-.98.28-1.65.49-2.11.57,1,.56,3.25.03,4.35.84-.35,1.66-1.48,1.48-2.69-.11-.7-1.33-3.35-1.7-4.92-.22-.92-.99-3.44-.03-5.35.81-1.61,2.72-2.83,4.19-3.56Z"/>
      <path class="cls-3" d="M144.53,28.69c-.04.21-.31,3.1.3,4.29.54,1.07,1.37,2.51,2.01,3.06.29.25.66.72.22,1.28-.19.35-1.62,1.02-2.19,1.3-.44.22-.57,1.05-.57,1.05,0,0-.82.22-1.4.67-.24.19-1.01,1.16-.94,1.76h2.33c.12-.31.23-.62.35-.93,0,0,.6-.16.95-.47.35-.31,1.66-1.52,2.12-1.87.46-.35,1.07-.96,1.3-1.19.23-.23.17-.79-.18-1.26-.35-.46-2.02-2.45-2.28-2.87-1.01-1.64-.89-3.21-.95-4.22l-1.06-.59ZM139.28,15.95c-.48-.61-1.07-1.3-1.46-1.75-.39-.76-.52-1.4-.96-1.61-.56-.27-.73-.31-1.47.33-.74.64-.96,1.23-1.31,1.67-.35.43-1.17,1.01-1.17,1.33-.07.39-.11,1.01-.11,1.01,0,0,1.17.6,1.69.32.12-.49-.03-.79-.08-1.21.57-.52.92-1.01,1.05-1.23.24-.31.48-.43.71-.42.49.44.55.76.53,1.02-.05.54.14,2,.14,2,.04.28.19.55.34.81.17,0,.34,0,.5,0,.4,0,.78,0,1.09.02-.05-.15-.09-.29-.12-.45-.03-.22-.04-.44,0-.68h0c.09-.44.32-.83.62-1.17ZM144.97,7.74c-.04-.58-.39-1.07-1.14-1.55-.35.32,0,1.02.12,1.24-.13-.04-.55.03-.69.06-.45.11-1.05,1.71-1.37,2.2-.17.26-.61.86-1.02,1.47-.35.53-.68,1.08-.79,1.28-.15.27-.19.56-.11.79.05.16.21.37.35.58.22.36.62-.21.74-.37-.09.29-.29.98.04.9.33-.08.63-.39.63-.39.19-.19.35-.54.61-1.08.5-.12,1.5-.17,1.78-.41.66-.58,1.05-.71,1.51-1.65.04,1.14-.35,1.67-.8,2.12-.45.45-3.13,1.89-3.83,2.21-.69.33-1.73,1.11-1.93,2.04-.07.4,0,.71.14,1.06.32-.31.35-.53.77-.82-.39.55-.44.9-.7,1.32-.19-.2-2.53-.02-3.66-.18-.81-.11-1.42-.56-1.86-.37-.57.25-.71.35-.71,1.33s.31,1.53.41,2.08c.1.55,0,1.55.24,1.75.24.31.69.74.69.74,0,0,1.22-.49,1.35-1.07-.3-.41-.62-.49-.97-.73-.03-.77-.17-1.36-.25-1.6-.08-.39-.02-.64.15-.81.65-.08.94.08,1.12.27.38.38,1.61,1.2,1.61,1.2.5.31.9.5,1.33.69.27.55.88,1.91,1.76,2.68,1.18,1.03,5.41,4.05,5.41,4.05.19-.22.31-.47.46-.72,0,0-.32,1.08-.23,1.9.19,1.78.68,2.72,1.29,3.61.61.9,1.49,2.01,1.97,2.49.28.29.67,1.07.21,1.66-.2.37-1.81,1.73-2.21,2.05-.41.33-.65,1.06-.65,1.06,0,0-1.06.45-1.31.65-.24.2-1.01,1.12-.94,1.76h2.45c.12-.33.24-.65.37-.98,0,0,.53.12.9-.2.37-.33,1.67-2.04,2.16-2.41.49-.37,1.75-1.47,2-1.71.25-.24.45-.86.08-1.35-.37-.49-1.55-1.63-1.71-2.12-.16-.49-.2-1.23.34-1.84.53-.61,1.54-1.71,1.75-1.95.2-.24.68-1.27.35-1.76.36-.33,1.62.28,1.54,1.34-.08,1.06-.88,2.96-.95,3.61-.1.92.36,1.82,1.05,2.09,1.12.43,2.41-.17,2.91-1.23-.7.25-1.4.38-1.59.16-.55-.64-.31-1.45-.11-1.98.24-.66,1.17-2.65.26-3.95-.42-.6-1.49-1.46-3.38-1.37-.69-.95-1.02-1.66-2.69-2.67-1.55-.94-2.59-2.02-3.15-2.75-.83-1.09-.06-3.69.45-4.61.75-1.36,1.51-4.21,1.43-5.22-.16-2.1-1.31-3.55-1.75-3.92-.45-.37-1.57-1.02-1.57-1.02-.4-.15-.36.02-.64.37ZM143.4,9.6c-.22.07-.61.06-.76.24-.17.22-.1.61-.1.61,0,0,.71.06.86-.85ZM144.83,6.41c.71-.82,2.96-.69,3.48-.5-.54.19-.82.48-.95.66,2.08,0,3.01.93,3.01,1.2-.6-.1-1.55-.11-1.68-.04,1.21.4,2.72,1.12,3.02,2.5-.89-.37-1.36-.48-1.91-.5,1.4.73,2.3,2.49,2.27,3.18-.78-.52-1.41-.9-1.97-1.04,1.15,1.05,1.84,2.73,1.57,3.61-.68-.57-1.24-1.05-1.62-1.16.85,1.67,1.05,2.65.81,3.99-.52-1.19-.82-1.47-1.2-1.69.45,1.15.17,3.57-.37,4.06-.17-.98-.28-1.65-.49-2.11-.57,1-.56,3.25-.03,4.35-.84-.35-1.66-1.48-1.48-2.69.11-.7,1.33-3.35,1.7-4.92.22-.92.99-3.44.03-5.35-.81-1.61-2.72-2.83-4.19-3.56Z"/>
    </g>
  </g>
</svg>